<svg width="16" height="19" viewBox="0 0 16 19" fill="none" xmlns="http://www.w3.org/2000/svg">
<path d="M13.366 6.71299C13.2567 5.01342 11.811 4.39942 9.9695 4.17928L10.0433 1.82845L8.61312 1.78414L8.54068 4.073C8.16473 4.06055 7.78073 4.05643 7.3975 4.05213L7.47082 1.74827L6.04042 1.70317L5.9664 4.05322C5.65648 4.04952 5.35161 4.04637 5.05514 4.03647L5.05519 4.02906L3.0817 3.96654L3.03386 5.49454C3.03386 5.49454 4.09148 5.5076 4.07333 5.52633C4.65284 5.54491 4.83042 5.88717 4.87642 6.17977L4.79267 8.85749C4.83241 8.85876 4.88416 8.86237 4.94373 8.8717L4.79235 8.86742L4.67436 12.6189C4.64281 12.8 4.52654 13.0874 4.12114 13.0755C4.13952 13.0921 3.08149 13.043 3.08149 13.043L2.74346 14.7422L4.60593 14.8008C4.95207 14.8123 5.29277 14.8291 5.62679 14.8415L5.55288 17.2187L6.98232 17.2632L7.05617 14.9123C7.44846 14.932 7.82822 14.9469 8.19911 14.9588L8.12479 17.2998L9.55503 17.3441L9.62995 14.9717C12.0401 14.9094 13.7424 14.3564 14.0226 12.104C14.2488 10.2908 13.4187 9.45164 12.0635 9.08116C12.9069 8.68507 13.4483 7.95717 13.366 6.71299ZM11.2039 11.7334C11.1498 13.5102 8.11337 13.2122 7.14344 13.1826L7.2435 10.0328C8.21377 10.0639 11.2629 9.8807 11.2039 11.7334ZM10.6785 7.26852C10.6276 8.88515 8.09642 8.61598 7.28936 8.59068L7.37902 5.73493C8.18607 5.76023 10.7316 5.58234 10.6785 7.26852Z" fill="#DB953C"/>
</svg>
