<svg width="20" height="20" viewBox="0 0 20 20" fill="none" xmlns="http://www.w3.org/2000/svg">
<path d="M19.75 10C19.75 15.3848 15.3848 19.75 10 19.75C4.61522 19.75 0.25 15.3848 0.25 10C0.25 4.61522 4.61522 0.25 10 0.25C15.3848 0.25 19.75 4.61522 19.75 10Z" stroke="#4848F6" stroke-width="0.5"/>
<path d="M6.8502 9.3939L6.85008 9.39378C6.68267 9.22637 6.45561 9.13232 6.21886 9.13232C5.9821 9.13232 5.75504 9.22637 5.58763 9.39378C5.42022 9.56119 5.32617 9.78825 5.32617 10.025C5.32617 10.2618 5.42022 10.4888 5.58763 10.6562L8.09138 13.156C8.0914 13.156 8.09142 13.156 8.09144 13.156C8.09146 13.156 8.09147 13.1561 8.09149 13.1561C8.25925 13.3233 8.48647 13.4172 8.72336 13.4172C8.96029 13.4172 9.18756 13.3233 9.35533 13.156L14.408 8.10933L6.8502 9.3939ZM6.8502 9.3939L8.3422 10.8839L8.34299 10.8847M6.8502 9.3939L8.34299 10.8847M8.34299 10.8847C8.4441 10.9848 8.58061 11.0409 8.72286 11.0409C8.86511 11.0409 9.00161 10.9848 9.10272 10.8847L9.10352 10.8839M8.34299 10.8847L9.10352 10.8839M9.10352 10.8839L13.1445 6.84789L13.1447 6.84767M9.10352 10.8839L13.1447 6.84767M13.1447 6.84767C13.2276 6.76472 13.326 6.69891 13.4342 6.65398M13.1447 6.84767L13.4342 6.65398M13.4342 6.65398C13.5425 6.60905 13.6586 6.58589 13.7758 6.58582M13.4342 6.65398L13.7758 6.58582M13.7758 6.58582C13.893 6.58574 14.0091 6.60876 14.1175 6.65356M13.7758 6.58582L14.1175 6.65356M14.1175 6.65356C14.2258 6.69835 14.3242 6.76404 14.4072 6.84689M14.1175 6.65356L14.4072 6.84689M14.4072 6.84689C14.4901 6.92973 14.5559 7.0281 14.6009 7.13637M14.4072 6.84689L14.6009 7.13637M14.6009 7.13637C14.6458 7.24465 14.669 7.36072 14.669 7.47795M14.6009 7.13637L14.669 7.47795M14.669 7.47795C14.6691 7.59518 14.6461 7.71127 14.6013 7.81961M14.669 7.47795L14.6013 7.81961M14.6013 7.81961C14.5565 7.92785 14.4909 8.02622 14.4082 8.10912L14.6013 7.81961Z" fill="#4848F7" stroke="#0A1018" stroke-width="0.5"/>
</svg>
