<svg width="12" height="16" viewBox="0 0 12 16" fill="none" xmlns="http://www.w3.org/2000/svg">
<path d="M11.3536 12.3536C11.5488 12.1583 11.5488 11.8417 11.3536 11.6464L8.17157 8.46447C7.97631 8.2692 7.65973 8.2692 7.46447 8.46447C7.2692 8.65973 7.2692 8.97631 7.46447 9.17157L10.2929 12L7.46447 14.8284C7.2692 15.0237 7.2692 15.3403 7.46447 15.5355C7.65973 15.7308 7.97631 15.7308 8.17157 15.5355L11.3536 12.3536ZM1 12.5L11 12.5L11 11.5L1 11.5L1 12.5Z" fill="#E7E7E7"/>
<path d="M0.646446 3.64645C0.451184 3.84171 0.451184 4.15829 0.646446 4.35355L3.82843 7.53553C4.02369 7.7308 4.34027 7.7308 4.53553 7.53553C4.7308 7.34027 4.7308 7.02369 4.53553 6.82843L1.70711 4L4.53553 1.17157C4.7308 0.976311 4.7308 0.659728 4.53553 0.464466C4.34027 0.269204 4.02369 0.269204 3.82843 0.464466L0.646446 3.64645ZM11 3.5L1 3.5L1 4.5L11 4.5L11 3.5Z" fill="#E7E7E7"/>
</svg>
