<svg width="11" height="15" viewBox="0 0 11 15" fill="none" xmlns="http://www.w3.org/2000/svg">
<path d="M8.90503 14.0667L1.46989 14.1964C0.786965 14.2083 0.221009 13.6623 0.209087 12.9788L0.108223 7.19592C0.0963006 6.51239 0.642873 5.94702 1.3258 5.93511L8.76094 5.80543C9.44387 5.79352 10.0098 6.33947 10.0217 7.02301L10.1226 12.8059C10.1345 13.4894 9.58796 14.0548 8.90503 14.0667ZM1.34021 6.76124C1.1127 6.76521 0.930373 6.9535 0.93435 7.18151L1.03521 12.9644C1.03919 13.1924 1.22797 13.3742 1.45548 13.3703L8.89062 13.2406C9.11813 13.2366 9.30046 13.0483 9.29648 12.8203L9.19562 7.03742C9.19164 6.8094 9.00286 6.62759 8.77535 6.63156L1.34021 6.76124Z" fill="#F5CEA3"/>
<path d="M7.95041 6.64597C7.7224 6.64994 7.53412 6.46812 7.53014 6.24011L7.49412 4.17479C7.47028 2.80833 6.33897 1.7158 4.97251 1.73964C3.60605 1.76347 2.51352 2.89479 2.53736 4.26124L2.57338 6.32656C2.57736 6.55457 2.39553 6.74285 2.16752 6.74683C1.93951 6.75081 1.75123 6.56898 1.74725 6.34097L1.71123 4.27565C1.67944 2.45317 3.13562 0.945296 4.9581 0.913509C6.78058 0.881721 8.28846 2.3379 8.32024 4.16038L8.35627 6.2257C8.36024 6.45371 8.17842 6.64199 7.95041 6.64597Z" fill="#F5CEA3"/>
</svg>
