<svg width="10" height="9" viewBox="0 0 10 9" fill="none" xmlns="http://www.w3.org/2000/svg">
<path d="M2.45682 5.41176L2.52147 3.20218C2.51302 2.85385 2.22629 2.5752 1.89464 2.57591L1.89434 2.57591C1.54078 2.57625 1.2653 2.85173 1.26496 3.20529L1.26498 3.20529L1.26494 3.20843L1.20638 7.53931C1.20687 7.87541 1.48928 8.15693 1.82444 8.15622L1.82444 8.15616L1.82986 8.15626L6.30571 8.24367C6.65814 8.24211 6.93239 7.96707 6.93273 7.6143C6.93306 7.27755 6.65031 6.99523 6.31467 6.99594L6.31467 6.99614L6.3047 6.99577L3.93465 6.90626L3.36232 6.88465L3.76731 6.47966L8.90072 1.34625C9.14963 1.09734 9.15178 0.702239 8.91077 0.461226C8.66648 0.216939 8.26249 0.216839 8.0169 0.462433L2.88349 5.59585L2.43841 6.04093L2.45682 5.41176Z" fill="#8484F1" stroke="#161C23" stroke-width="0.5"/>
</svg>
