<svg width="16" height="15" viewBox="0 0 16 15" fill="none" xmlns="http://www.w3.org/2000/svg">
<path d="M11.9811 10.204C11.5782 10.204 11.2504 10.5318 11.2504 10.9348C11.2504 11.3377 11.5782 11.6655 11.9811 11.6655C12.3841 11.6655 12.7119 11.3377 12.7119 10.9348C12.7119 10.5319 12.3841 10.204 11.9811 10.204ZM11.9811 11.2325C11.817 11.2325 11.6834 11.0989 11.6834 10.9348C11.6834 10.7707 11.817 10.6371 11.9811 10.6371C12.1452 10.6371 12.2788 10.7707 12.2788 10.9348C12.2788 11.0989 12.1452 11.2325 11.9811 11.2325Z" fill="#E7E7E7"/>
<path d="M14.164 9.65249L14.1706 9.65845C14.6494 10.0904 14.9236 10.6861 14.9402 11.3307L14.9402 11.3308C14.9568 11.9754 14.7137 12.5844 14.2577 13.0404L14.2577 13.0404C13.8166 13.4814 13.2316 13.7237 12.6095 13.7237C12.5917 13.7237 12.5738 13.7236 12.556 13.7232H12.5559C11.9143 13.7088 11.3196 13.4388 10.8864 12.9652L10.8863 12.9651L7.27676 9.01528L7.27667 9.01519L6.30549 7.95317C5.04988 8.2632 3.70296 7.8994 2.77545 6.97192L2.77545 6.97191C2.31529 6.51174 1.81399 5.99134 1.49615 5.41405C1.16863 4.8192 1.02144 4.13667 1.30922 3.38629L1.30925 3.38623C1.38404 3.1913 1.55238 3.04748 1.75659 3.00403L1.75676 3.004C1.96088 2.96066 2.17308 3.02341 2.32079 3.17104L2.32086 3.17111L3.93325 4.7835L5.73364 3.2569L4.13684 1.66007C4.13684 1.66007 4.13684 1.66007 4.13684 1.66007C3.98909 1.51232 3.92639 1.29999 3.96973 1.09595C4.01315 0.891522 4.15712 0.723219 4.35196 0.648459L4.35203 0.648433C5.78693 0.0981334 7.0608 0.720931 8.04361 1.70374L14.164 9.65249ZM14.164 9.65249L14.1571 9.64683M14.164 9.65249L14.1571 9.64683M14.1571 9.64683L10.284 6.45377L9.00797 5.30287M14.1571 9.64683L9.00797 5.30287M9.00797 5.30287C9.35051 4.02707 8.99331 2.65341 8.04362 1.70375L9.00797 5.30287ZM5.83691 3.36017C5.83686 3.36012 5.83681 3.36007 5.83676 3.36002L5.8369 3.36017L5.83691 3.36017Z" stroke="#E7E7E7" stroke-width="0.8"/>
</svg>
