<svg width="9" height="9" viewBox="0 0 9 9" fill="none" xmlns="http://www.w3.org/2000/svg">
<path d="M6.95987 3.1049L6.94261 5.31536C6.95853 5.66343 7.25117 5.93586 7.58273 5.92804L7.58302 5.92803C7.9365 5.92011 8.20601 5.63879 8.19877 5.2853L8.19875 5.2853L8.19872 5.28216L8.1644 0.951025C8.15671 0.615006 7.86832 0.339608 7.53326 0.34751L7.53326 0.347569L7.52784 0.347579L3.05114 0.356162C2.69883 0.365283 2.43054 0.646139 2.43776 0.998838C2.44466 1.33551 2.73339 1.61171 3.06894 1.6038L3.06893 1.6036L3.07891 1.60376L5.45034 1.64242L6.023 1.65176L5.62679 2.06534L0.604627 7.30764C0.361114 7.56183 0.367429 7.95689 0.613554 8.19268C0.863023 8.43167 1.26692 8.42311 1.50719 8.1723L6.52935 2.93L6.96479 2.47548L6.95987 3.1049Z" fill="#CAA276" stroke="#161C23" stroke-width="0.5"/>
</svg>
