<svg width="15" height="12" viewBox="0 0 15 12" fill="none" xmlns="http://www.w3.org/2000/svg">
<path d="M12.4186 12H2.09302C0.93892 12 0 11.0611 0 9.90698V2.09302C0 0.938919 0.93892 0 2.09302 0H12.4186C13.5727 0 14.5116 0.938919 14.5116 2.09302V9.90698C14.5116 11.0611 13.5727 12 12.4186 12ZM13.6744 4.74417H10.6047C9.91222 4.74417 9.34884 5.30752 9.34884 6C9.34884 6.69248 9.91219 7.25582 10.6047 7.25582H13.6744V4.74417ZM13.6744 8.09302H10.6047C9.45057 8.09302 8.51165 7.1541 8.51165 6C8.51165 4.8459 9.45057 3.90698 10.6047 3.90698H13.6744V2.09302C13.6744 1.40057 13.1111 0.837196 12.4186 0.837196H2.09302C1.40057 0.837196 0.837197 1.40054 0.837197 2.09302V9.90698C0.837197 10.5994 1.40054 11.1628 2.09302 11.1628H12.4186C13.1111 11.1628 13.6744 10.5995 13.6744 9.90698V8.09302Z" fill="#C78D4E"/>
<path d="M11.1648 6.41917H10.6067C10.3755 6.41917 10.1881 6.23174 10.1881 6.00058C10.1881 5.76938 10.3755 5.58198 10.6067 5.58198H11.1648C11.396 5.58198 11.5834 5.76941 11.5834 6.00058C11.5834 6.23177 11.396 6.41917 11.1648 6.41917Z" fill="#C78D4E"/>
</svg>
